<svg xmlns="http://www.w3.org/2000/svg" viewBox="0 0 64 64" fill="none">
  <defs>
    <linearGradient id="boxGradient" x1="0%" y1="0%" x2="100%" y2="100%">
      <stop offset="0%" style="stop-color:#3b82f6;stop-opacity:1" />
      <stop offset="100%" style="stop-color:#1d4ed8;stop-opacity:1" />
    </linearGradient>
    <linearGradient id="lockGradient" x1="0%" y1="0%" x2="100%" y2="100%">
      <stop offset="0%" style="stop-color:#60a5fa;stop-opacity:1" />
      <stop offset="100%" style="stop-color:#3b82f6;stop-opacity:1" />
    </linearGradient>
  </defs>

  <!-- 盒子外框 -->
  <rect x="8" y="16" width="48" height="40" rx="6" fill="url(#boxGradient)" />

  <!-- 盒子高光 -->
  <rect x="8" y="16" width="48" height="4" rx="6" fill="rgba(255,255,255,0.3)" />

  <!-- 锁体 -->
  <rect x="24" y="32" width="16" height="16" rx="2" fill="url(#lockGradient)" />

  <!-- 锁孔 -->
  <circle cx="32" cy="38" r="2.5" fill="#1e3a8a" />
  <rect x="30.5" y="38" width="3" height="6" rx="1.5" fill="#1e3a8a" />

  <!-- 锁扣 -->
  <path d="M 26 32 L 26 24 C 26 20.686 28.686 18 32 18 C 35.314 18 38 20.686 38 24 L 38 32"
        stroke="#60a5fa"
        stroke-width="3"
        fill="none"
        stroke-linecap="round"/>

  <!-- 内部锁扣阴影 -->
  <path d="M 28 32 L 28 24 C 28 21.791 29.791 20 32 20 C 34.209 20 36 21.791 36 24 L 36 32"
        stroke="#1e3a8a"
        stroke-width="2"
        fill="none"
        stroke-linecap="round"/>
</svg>
