<svg xmlns="http://www.w3.org/2000/svg" viewBox="0 0 64 64" fill="none">
  <defs>
    <!-- 金色渐变 -->
    <linearGradient id="lockGradient" x1="0%" y1="0%" x2="100%" y2="100%">
      <stop offset="0%" style="stop-color:#f59e0b;stop-opacity:1" />
      <stop offset="100%" style="stop-color:#d97706;stop-opacity:1" />
    </linearGradient>
    <!-- 深色盒子渐变 -->
    <linearGradient id="boxGradient" x1="0%" y1="0%" x2="100%" y2="100%">
      <stop offset="0%" style="stop-color:#374151;stop-opacity:1" />
      <stop offset="100%" style="stop-color:#1f2937;stop-opacity:1" />
    </linearGradient>
  </defs>

  <!-- 圆形背景 - 占满整个空间 -->
  <circle cx="32" cy="32" r="32" fill="#ffffff" />
  <circle cx="32" cy="32" r="30" fill="url(#boxGradient)" />

  <!-- 盒子主体 - 更大，几乎占满整个图标 -->
  <rect x="10" y="20" width="44" height="32" rx="5" fill="url(#boxGradient)" stroke="#4b5563" stroke-width="2"/>

  <!-- 盒子高光效果 -->
  <rect x="10" y="20" width="44" height="4" rx="5" fill="rgba(255,255,255,0.15)" />

  <!-- 锁体 - 更大的金色锁 -->
  <rect x="22" y="34" width="20" height="16" rx="2.5" fill="url(#lockGradient)" />

  <!-- 锁孔 - 更大 -->
  <circle cx="32" cy="40" r="2.5" fill="#78350f" />
  <rect x="30" y="40" width="4" height="7" rx="2" fill="#78350f" />

  <!-- 锁扣 - 更粗更大 -->
  <path d="M 24 34 L 24 26 C 24 21.582 27.582 18 32 18 C 36.418 18 40 21.582 40 26 L 40 34"
        stroke="#f59e0b"
        stroke-width="4"
        fill="none"
        stroke-linecap="round"/>

  <!-- 锁扣内部阴影 - 更粗 -->
  <path d="M 27 34 L 27 26 C 27 23.239 29.239 21 32 21 C 34.761 21 37 23.239 37 26 L 37 34"
        stroke="#92400e"
        stroke-width="2.5"
        fill="none"
        stroke-linecap="round"/>
</svg>
